<svg width="85" height="86" viewBox="0 0 85 86" fill="none" xmlns="http://www.w3.org/2000/svg">
<path d="M55.7419 1.862C61.0069 1.862 66.2329 4.094 69.8939 8.43C76.4899 16.242 75.5069 27.921 67.6959 34.518C64.2199 37.452 59.9779 38.887 55.7589 38.887C50.4949 38.887 45.2689 36.655 41.6079 32.319C35.0079 24.507 35.9959 12.827 43.8069 6.231C47.2819 3.296 51.5249 1.862 55.7419 1.862ZM55.7439 0C50.9439 0 46.2789 1.708 42.6069 4.807C38.4479 8.32 35.9069 13.24 35.4489 18.662C34.9909 24.085 36.6739 29.362 40.1859 33.519C44.0629 38.113 49.7409 40.748 55.7579 40.748C60.5569 40.748 65.2239 39.041 68.8969 35.94C77.4779 28.692 78.5629 15.813 71.3159 7.228C67.4369 2.635 61.7619 0 55.7439 0Z" fill="#696969"/>
<path d="M63.8909 82.294C73.1709 82.294 80.6939 74.771 80.6939 65.491C80.6939 56.2109 73.1709 48.688 63.8909 48.688C54.6108 48.688 47.0879 56.2109 47.0879 65.491C47.0879 74.771 54.6108 82.294 63.8909 82.294Z" fill="#696969"/>
<path d="M63.8798 46.9777C69.1438 46.9777 74.3708 49.2087 78.0308 53.5447C84.6278 61.3587 83.6448 73.0367 75.8338 79.6347C72.3588 82.5697 68.1158 84.0027 63.8968 84.0027C58.6328 84.0027 53.4078 81.7707 49.7468 77.4337C43.1478 69.6227 44.1338 57.9437 51.9458 51.3447C55.4208 48.4117 59.6618 46.9777 63.8798 46.9777ZM63.8808 45.1157C59.0828 45.1157 54.4168 46.8237 50.7458 49.9217C46.5868 53.4357 44.0438 58.3557 43.5878 63.7787C43.1308 69.2017 44.8128 74.4777 48.3248 78.6337C52.2018 83.2277 57.8788 85.8627 63.8968 85.8627C68.6968 85.8627 73.3618 84.1557 77.0348 81.0547C85.6148 73.8067 86.7008 60.9267 79.4518 52.3437C75.5748 47.7517 69.8978 45.1157 63.8808 45.1157Z" fill="#696969"/>
<path d="M8.28904 37.8719C8.07104 38.0969 7.87104 38.3379 7.66504 38.5759L29.059 63.9079C29.327 63.7459 29.598 63.5889 29.855 63.4099C30.113 63.2349 30.353 63.0429 30.602 62.8519L8.96604 37.2319C8.73904 37.4429 8.50704 37.6479 8.28904 37.8719Z" fill="#696969"/>
<path d="M6.14451 40.6238C5.97051 40.9018 5.80251 41.1848 5.64551 41.4718L25.8615 65.4178C26.1735 65.3078 26.4795 65.1898 26.7815 65.0638C27.0805 64.9418 27.3715 64.8038 27.6635 64.6648L6.68751 39.8208C6.50051 40.0858 6.31651 40.3498 6.14451 40.6238Z" fill="#696969"/>
<path d="M4.52882 44C4.40882 44.345 4.29282 44.689 4.19482 45.046L22.0998 66.249C22.4658 66.211 22.8238 66.154 23.1838 66.094C23.5368 66.032 23.8858 65.972 24.2308 65.891L4.90382 43.002C4.76482 43.327 4.64882 43.664 4.52882 44Z" fill="#696969"/>
<path d="M3.63109 48.1287C3.62909 48.1597 3.63209 48.1917 3.62909 48.2227C3.59209 48.6907 3.58109 49.1507 3.58209 49.6117L17.4971 66.0877C17.9481 66.1667 18.4061 66.2327 18.8721 66.2757C18.9031 66.2777 18.9331 66.2847 18.9631 66.2877C19.3581 66.3197 19.7451 66.3187 20.1341 66.3267L3.78909 46.9697C3.72809 47.3537 3.66609 47.7347 3.63109 48.1287Z" fill="#696969"/>
<path d="M4.26392 54.261C4.53592 55.194 4.88892 56.09 5.31192 56.948L10.5479 63.151C11.3259 63.712 12.1509 64.21 13.0199 64.634C13.6239 64.929 14.2489 65.184 14.8929 65.407L3.81592 52.293C3.92792 52.962 4.07492 53.621 4.26392 54.261Z" fill="#696969"/>
<path d="M21.8782 32.8078C21.8482 32.8058 21.8202 32.7988 21.7882 32.7958C21.3952 32.7638 21.0072 32.7638 20.6182 32.7568L36.9632 52.1128C37.0242 51.7288 37.0862 51.3428 37.1222 50.9528C37.1232 50.9218 37.1222 50.8928 37.1232 50.8608C37.1602 50.3928 37.1732 49.9338 37.1702 49.4718L23.2542 32.9948C22.8022 32.9158 22.3462 32.8508 21.8782 32.8078Z" fill="#696969"/>
<path d="M27.7289 34.4468C27.1269 34.1528 26.4999 33.8968 25.8599 33.6738L36.9369 46.7918C36.8269 46.1218 36.6779 45.4628 36.4899 44.8188C36.2169 43.8888 35.8649 42.9938 35.4419 42.1358L30.2009 35.9288C29.4239 35.3678 28.6009 34.8708 27.7289 34.4468Z" fill="#696969"/>
<path d="M17.5656 32.99C17.2136 33.05 16.8616 33.11 16.5166 33.192L35.8486 56.082C35.9856 55.755 36.1046 55.418 36.2226 55.08C36.3416 54.735 36.4606 54.392 36.5596 54.037L18.6536 32.833C18.2866 32.871 17.9266 32.929 17.5656 32.99Z" fill="#696969"/>
<path d="M13.9659 34.018C13.6699 34.142 13.3769 34.278 13.0879 34.418L34.0659 59.259C34.2539 58.996 34.4359 58.732 34.6079 58.458C34.7829 58.179 34.9499 57.897 35.1069 57.608L14.8889 33.665C14.5769 33.774 14.2689 33.892 13.9659 34.018Z" fill="#696969"/>
<path d="M10.8949 35.6708C10.6399 35.8468 10.3959 36.0418 10.1499 36.2318L31.7869 61.8528C32.0159 61.6388 32.2469 61.4339 32.4629 61.2089C32.6809 60.9829 32.8819 60.7428 33.0879 60.5058L11.6949 35.1729C11.4249 35.3359 11.1559 35.4948 10.8949 35.6708Z" fill="#696969"/>
<path d="M20.3669 31.029C25.6309 31.029 30.8599 33.261 34.5209 37.597C41.1159 45.409 40.1329 57.087 32.3219 63.685C28.8459 66.62 24.6039 68.055 20.3849 68.055C15.1209 68.055 9.89387 65.822 6.23287 61.485C-0.366133 53.674 0.620868 41.994 8.43287 35.396C11.9069 32.463 16.1489 31.029 20.3669 31.029ZM20.3679 29.167C15.5689 29.167 10.9029 30.875 7.23087 33.975C3.07287 37.488 0.530867 42.407 0.0738674 47.83C-0.384133 53.253 1.29887 58.53 4.81087 62.686C8.68787 67.281 14.3659 69.915 20.3839 69.915C25.1829 69.915 29.8489 68.207 33.5209 65.107C42.1039 57.859 43.1889 44.979 35.9409 36.395C32.0629 31.802 26.3859 29.167 20.3679 29.167Z" fill="#696969"/>
<path d="M43.2798 9.00595C43.3848 8.88695 43.4898 8.76795 43.6038 8.65395C43.6858 8.56695 43.7738 8.48195 43.8618 8.39795L65.5618 34.096C65.4658 34.17 65.3688 34.2409 65.2688 34.3099C65.1368 34.3999 65.0018 34.484 64.8678 34.568L43.2798 9.00595Z" fill="#696969"/>
<path d="M41.1279 11.9458C41.2319 11.7678 41.3409 11.5928 41.4479 11.4188C41.4949 11.3438 41.5419 11.2708 41.5899 11.1978L62.4229 35.8678C62.3449 35.9038 62.2649 35.9378 62.1829 35.9708C61.9929 36.0498 61.8019 36.1258 61.6079 36.1978L41.1279 11.9458Z" fill="#696969"/>
<path d="M39.5679 15.5838C39.6469 15.3228 39.7349 15.0668 39.8259 14.8088C39.8439 14.7568 39.8609 14.7078 39.8779 14.6558L58.7279 36.9748C58.6739 36.9838 58.6209 36.9928 58.5679 36.9998C58.2999 37.0458 58.0309 37.0888 57.7599 37.1248L39.5679 15.5838Z" fill="#696969"/>
<path d="M54.232 37.1848C53.833 37.1488 53.439 37.0948 53.047 37.0298L38.874 20.2458C38.875 19.8508 38.889 19.4518 38.92 19.0498L38.923 19.0078L54.276 37.1908L54.232 37.1848Z" fill="#696969"/>
<path d="M48.1717 35.4478C47.3997 35.0578 46.6447 34.6018 45.9287 34.0878L40.5827 27.7578C40.1957 26.9668 39.8727 26.1488 39.6147 25.3198L48.1717 35.4478Z" fill="#696969"/>
<path d="M57.2109 3.55762C57.6709 3.60362 58.0649 3.65662 58.4429 3.71962L72.6169 20.5046C72.6149 20.9016 72.6009 21.2986 72.5699 21.7016L72.5679 21.7436L57.2109 3.55762Z" fill="#696969"/>
<path d="M63.3179 5.30273C64.0909 5.69073 64.8459 6.14873 65.5599 6.66073L70.9109 12.9957C71.2929 13.7867 71.6169 14.6047 71.8739 15.4327L63.3179 5.30273Z" fill="#696969"/>
<path d="M52.7607 3.776C52.8147 3.767 52.8667 3.758 52.9217 3.75C53.1917 3.703 53.4577 3.659 53.7287 3.625L71.9207 25.166C71.8427 25.427 71.7537 25.683 71.6647 25.941C71.6447 25.993 71.6277 26.043 71.6097 26.094L52.7607 3.776Z" fill="#696969"/>
<path d="M49.0635 4.88373C49.1435 4.84873 49.2235 4.81373 49.3055 4.78073C49.4935 4.70073 49.6885 4.62473 49.8805 4.55273L70.3605 28.8057C70.2565 28.9837 70.1485 29.1597 70.0385 29.3337C69.9935 29.4067 69.9455 29.4817 69.8965 29.5557L49.0635 4.88373Z" fill="#696969"/>
<path d="M45.9268 6.65462C46.0248 6.58062 46.1208 6.50962 46.2208 6.44062C46.3528 6.35062 46.4868 6.26662 46.6228 6.18262L68.2098 31.7436C68.1058 31.8646 67.9948 31.9826 67.8878 32.0976C67.8018 32.1856 67.7158 32.2696 67.6278 32.3516L45.9268 6.65462Z" fill="#696969"/>
</svg>
