<svg width="75" height="57" viewBox="0 0 75 57" fill="none" xmlns="http://www.w3.org/2000/svg">
<path d="M60 0L45 15H56.25V41.25C56.25 45.3937 52.8937 48.75 48.75 48.75C44.6063 48.75 41.25 45.3937 41.25 41.25V15C41.25 6.73125 34.5187 0 26.25 0C17.9813 0 11.25 6.73125 11.25 15V41.25H0L15 56.25L30 41.25H18.75V15C18.75 10.8562 22.1063 7.5 26.25 7.5C30.3937 7.5 33.75 10.8562 33.75 15V41.25C33.75 49.5187 40.4813 56.25 48.75 56.25C57.0187 56.25 63.75 49.5187 63.75 41.25V15H75L60 0Z" fill="#696969"/>
</svg>
