<svg width="83" height="90" viewBox="0 0 83 90" fill="none" xmlns="http://www.w3.org/2000/svg">
<mask id="path-1-outside-1" maskUnits="userSpaceOnUse" x="0" y="29.5781" width="38" height="61" fill="black">
<rect fill="white" y="29.5781" width="38" height="61"/>
<path d="M23.0912 53.8161C21.7172 53.5991 20.2443 53.4871 18.7123 53.4801C18.3303 53.3671 16.8053 52.8351 15.3073 51.1961C14.6043 50.4241 12.2152 47.8891 9.60724 46.0921V34.7701C9.60724 34.6251 9.60024 34.4821 9.58624 34.3421C9.37124 32.2311 7.58325 30.5781 5.41625 30.5781C3.58425 30.5781 1.98925 31.7731 1.43625 33.4581C1.36825 33.6651 1.31924 33.8801 1.28424 34.1011V34.1021C1.27824 34.1381 1.27025 34.1721 1.26525 34.2081C1.26025 34.2461 1.25724 34.2841 1.25624 34.3231C1.25624 34.3241 1.25624 34.3251 1.25624 34.3271L1.20024 36.5221C1.06924 41.6661 0.974243 45.3831 1.00624 48.0541C1.07824 54.3891 1.93025 55.6521 4.20825 59.0291C4.65725 59.6931 5.16524 60.4461 5.74124 61.3461C9.12524 66.6381 15.1033 69.6441 19.0593 71.6331C20.7413 72.4791 22.6462 73.4371 22.9762 73.9731C23.0552 74.1041 23.7192 75.4641 22.6942 83.0831C22.3362 85.7661 21.9302 87.9761 21.9262 87.9971C21.8652 88.3261 21.9542 88.6641 22.1682 88.9221C22.3812 89.1791 22.6993 89.3271 23.0333 89.3271L36.3252 89.3321C36.6242 89.3321 36.9103 89.2141 37.1213 89.0021C37.3322 88.7911 37.4513 88.5051 37.4513 88.2061V68.6461C37.4503 68.5161 37.4023 65.4231 35.6043 62.0471C33.9413 58.9301 30.4212 54.9711 23.0912 53.8161ZM3.53525 34.3011C3.54225 34.2701 3.55125 34.2401 3.55925 34.2101C3.56725 34.1841 3.57425 34.1571 3.58325 34.1311C3.59325 34.1011 3.60425 34.0731 3.61525 34.0441C3.62525 34.0191 3.63425 33.9931 3.64525 33.9691C3.65825 33.9411 3.67224 33.9141 3.68524 33.8861C3.69724 33.8631 3.70824 33.8391 3.72124 33.8151C3.73624 33.7881 3.75225 33.7621 3.76825 33.7361C3.78225 33.7141 3.79425 33.6921 3.80925 33.6711C3.82725 33.6451 3.84624 33.6201 3.86424 33.5961C3.87924 33.5751 3.89424 33.5551 3.90924 33.5351C3.92924 33.5111 3.95024 33.4881 3.97124 33.4651C3.98824 33.4461 4.00424 33.4271 4.02124 33.4091C4.04324 33.3871 4.06625 33.3651 4.08925 33.3441C4.10725 33.3271 4.12425 33.3101 4.14325 33.2941C4.16725 33.2731 4.19325 33.2531 4.21825 33.2341C4.23725 33.2201 4.25524 33.2041 4.27524 33.1901C4.30224 33.1711 4.32924 33.1541 4.35724 33.1361C4.37724 33.1241 4.39625 33.1101 4.41625 33.0981C4.44525 33.0811 4.47524 33.0661 4.50424 33.0511C4.52524 33.0401 4.54525 33.0291 4.56525 33.0191C4.59625 33.0041 4.62825 32.9911 4.66025 32.9781C4.68125 32.9691 4.70225 32.9591 4.72325 32.9521C4.75625 32.9391 4.79025 32.9301 4.82425 32.9191C4.84525 32.9121 4.86624 32.9041 4.88724 32.8981C4.92324 32.8881 4.96125 32.8811 4.99825 32.8731C5.01825 32.8691 5.03724 32.8641 5.05824 32.8601C5.10024 32.8531 5.14224 32.8481 5.18524 32.8431C5.20224 32.8411 5.21824 32.8381 5.23424 32.8371C5.29424 32.8311 5.35424 32.8291 5.41524 32.8291C6.35224 32.8291 7.13524 33.4961 7.31624 34.3791C7.34224 34.5051 7.35524 34.6361 7.35524 34.7701V44.7901C7.33424 44.7811 7.31425 44.7731 7.29325 44.7641C7.26725 44.7531 7.24124 44.7431 7.21524 44.7311C7.12824 44.6931 7.04224 44.6571 6.95624 44.6231C6.92824 44.6121 6.90125 44.6021 6.87325 44.5921C6.79025 44.5601 6.70824 44.5301 6.62724 44.5021C6.59825 44.4921 6.56924 44.4831 6.54024 44.4741C6.46124 44.4481 6.38325 44.4231 6.30625 44.4001C6.27725 44.3911 6.24725 44.3841 6.21825 44.3761C6.14225 44.3551 6.06725 44.3341 5.99225 44.3161C5.96225 44.3091 5.93325 44.3031 5.90425 44.2971C5.83125 44.2811 5.75824 44.2651 5.68524 44.2521C5.65624 44.2471 5.62824 44.2431 5.59925 44.2381C5.52824 44.2261 5.45625 44.2151 5.38625 44.2071C5.35825 44.2031 5.33025 44.2011 5.30225 44.1981C5.23225 44.1911 5.16324 44.1841 5.09424 44.1801C5.06624 44.1791 5.03924 44.1791 5.01224 44.1781C4.95824 44.1761 4.90525 44.1731 4.85225 44.1731C4.84125 44.1731 4.83225 44.1741 4.82125 44.1741C4.69725 44.1751 4.57624 44.1821 4.45624 44.1941C4.42024 44.1981 4.38425 44.2031 4.34925 44.2071C4.23725 44.2221 4.12725 44.2401 4.01825 44.2641C4.00625 44.2671 3.99525 44.2671 3.98325 44.2701C3.73325 44.3291 3.49425 44.4161 3.26825 44.5281C3.30025 42.3611 3.36724 39.7341 3.44824 36.5611L3.50224 34.4611C3.50624 34.4351 3.51125 34.4091 3.51625 34.3831C3.52325 34.3561 3.52825 34.3281 3.53525 34.3011ZM20.0682 69.6221C16.1092 67.6321 10.6862 64.9051 7.63524 60.1351C7.04424 59.2111 6.52825 58.4461 6.07225 57.7711C4.67125 55.6951 3.93224 54.5991 3.56624 52.5601C3.64824 52.6511 3.73224 52.7431 3.81824 52.8351C5.41624 54.5391 7.50225 56.1131 8.88225 57.1551C9.49725 57.6191 10.0783 58.0571 10.2773 58.2571C10.2823 58.2621 10.2882 58.2681 10.2932 58.2731C10.2932 58.2741 10.2933 58.2741 10.2943 58.2741C10.4043 58.3941 10.5863 58.6101 10.7963 58.8611C12.7213 61.1541 17.8323 67.2481 23.7983 66.5851C24.4163 66.5171 24.8612 65.9601 24.7932 65.3421C24.7252 64.7241 24.1682 64.2801 23.5502 64.3481C18.7882 64.8811 14.2352 59.4551 12.5212 57.4141C12.2902 57.1381 12.1062 56.9191 11.9612 56.7621C11.9512 56.7501 11.9403 56.7401 11.9303 56.7291C11.9243 56.7221 11.9182 56.7151 11.9112 56.7091C11.9102 56.7071 11.9082 56.7041 11.9072 56.7031C11.6002 56.3861 11.0293 55.9551 10.2403 55.3591C8.84225 54.3041 6.92724 52.8591 5.46124 51.2951C5.46024 51.2931 5.45824 51.2921 5.45624 51.2901C4.46624 50.2311 3.85024 49.2941 3.62424 48.4991C3.62424 48.4991 3.62424 48.4981 3.62424 48.4971C3.56324 48.2881 3.53225 48.0941 3.52825 47.9111C3.52325 47.6051 3.59724 47.3301 3.75224 47.0691C4.01824 46.6231 4.30725 46.5091 4.50125 46.4651C4.91925 46.3651 5.91025 46.3881 7.84525 47.6251C7.85325 47.6311 7.86224 47.6361 7.87024 47.6411C7.87124 47.6421 7.87225 47.6431 7.87325 47.6431C10.5132 49.3391 13.1432 52.1641 13.6442 52.7151C15.8742 55.1561 18.2302 55.6871 18.3292 55.7081C18.4072 55.7251 18.4872 55.7321 18.5662 55.7321C20.0342 55.7321 21.4392 55.8361 22.7412 56.0411C34.9052 57.9581 35.1922 68.2351 35.1982 68.6581V82.1091H25.0862C25.9952 74.6181 25.2062 73.3121 24.8962 72.8021C24.2292 71.7141 22.5742 70.8821 20.0682 69.6221ZM24.3682 87.0771C24.4862 86.3681 24.6362 85.4211 24.7882 84.3601H35.1982V87.0811L24.3682 87.0771Z"/>
</mask>
<path d="M23.0912 53.8161C21.7172 53.5991 20.2443 53.4871 18.7123 53.4801C18.3303 53.3671 16.8053 52.8351 15.3073 51.1961C14.6043 50.4241 12.2152 47.8891 9.60724 46.0921V34.7701C9.60724 34.6251 9.60024 34.4821 9.58624 34.3421C9.37124 32.2311 7.58325 30.5781 5.41625 30.5781C3.58425 30.5781 1.98925 31.7731 1.43625 33.4581C1.36825 33.6651 1.31924 33.8801 1.28424 34.1011V34.1021C1.27824 34.1381 1.27025 34.1721 1.26525 34.2081C1.26025 34.2461 1.25724 34.2841 1.25624 34.3231C1.25624 34.3241 1.25624 34.3251 1.25624 34.3271L1.20024 36.5221C1.06924 41.6661 0.974243 45.3831 1.00624 48.0541C1.07824 54.3891 1.93025 55.6521 4.20825 59.0291C4.65725 59.6931 5.16524 60.4461 5.74124 61.3461C9.12524 66.6381 15.1033 69.6441 19.0593 71.6331C20.7413 72.4791 22.6462 73.4371 22.9762 73.9731C23.0552 74.1041 23.7192 75.4641 22.6942 83.0831C22.3362 85.7661 21.9302 87.9761 21.9262 87.9971C21.8652 88.3261 21.9542 88.6641 22.1682 88.9221C22.3812 89.1791 22.6993 89.3271 23.0333 89.3271L36.3252 89.3321C36.6242 89.3321 36.9103 89.2141 37.1213 89.0021C37.3322 88.7911 37.4513 88.5051 37.4513 88.2061V68.6461C37.4503 68.5161 37.4023 65.4231 35.6043 62.0471C33.9413 58.9301 30.4212 54.9711 23.0912 53.8161ZM3.53525 34.3011C3.54225 34.2701 3.55125 34.2401 3.55925 34.2101C3.56725 34.1841 3.57425 34.1571 3.58325 34.1311C3.59325 34.1011 3.60425 34.0731 3.61525 34.0441C3.62525 34.0191 3.63425 33.9931 3.64525 33.9691C3.65825 33.9411 3.67224 33.9141 3.68524 33.8861C3.69724 33.8631 3.70824 33.8391 3.72124 33.8151C3.73624 33.7881 3.75225 33.7621 3.76825 33.7361C3.78225 33.7141 3.79425 33.6921 3.80925 33.6711C3.82725 33.6451 3.84624 33.6201 3.86424 33.5961C3.87924 33.5751 3.89424 33.5551 3.90924 33.5351C3.92924 33.5111 3.95024 33.4881 3.97124 33.4651C3.98824 33.4461 4.00424 33.4271 4.02124 33.4091C4.04324 33.3871 4.06625 33.3651 4.08925 33.3441C4.10725 33.3271 4.12425 33.3101 4.14325 33.2941C4.16725 33.2731 4.19325 33.2531 4.21825 33.2341C4.23725 33.2201 4.25524 33.2041 4.27524 33.1901C4.30224 33.1711 4.32924 33.1541 4.35724 33.1361C4.37724 33.1241 4.39625 33.1101 4.41625 33.0981C4.44525 33.0811 4.47524 33.0661 4.50424 33.0511C4.52524 33.0401 4.54525 33.0291 4.56525 33.0191C4.59625 33.0041 4.62825 32.9911 4.66025 32.9781C4.68125 32.9691 4.70225 32.9591 4.72325 32.9521C4.75625 32.9391 4.79025 32.9301 4.82425 32.9191C4.84525 32.9121 4.86624 32.9041 4.88724 32.8981C4.92324 32.8881 4.96125 32.8811 4.99825 32.8731C5.01825 32.8691 5.03724 32.8641 5.05824 32.8601C5.10024 32.8531 5.14224 32.8481 5.18524 32.8431C5.20224 32.8411 5.21824 32.8381 5.23424 32.8371C5.29424 32.8311 5.35424 32.8291 5.41524 32.8291C6.35224 32.8291 7.13524 33.4961 7.31624 34.3791C7.34224 34.5051 7.35524 34.6361 7.35524 34.7701V44.7901C7.33424 44.7811 7.31425 44.7731 7.29325 44.7641C7.26725 44.7531 7.24124 44.7431 7.21524 44.7311C7.12824 44.6931 7.04224 44.6571 6.95624 44.6231C6.92824 44.6121 6.90125 44.6021 6.87325 44.5921C6.79025 44.5601 6.70824 44.5301 6.62724 44.5021C6.59825 44.4921 6.56924 44.4831 6.54024 44.4741C6.46124 44.4481 6.38325 44.4231 6.30625 44.4001C6.27725 44.3911 6.24725 44.3841 6.21825 44.3761C6.14225 44.3551 6.06725 44.3341 5.99225 44.3161C5.96225 44.3091 5.93325 44.3031 5.90425 44.2971C5.83125 44.2811 5.75824 44.2651 5.68524 44.2521C5.65624 44.2471 5.62824 44.2431 5.59925 44.2381C5.52824 44.2261 5.45625 44.2151 5.38625 44.2071C5.35825 44.2031 5.33025 44.2011 5.30225 44.1981C5.23225 44.1911 5.16324 44.1841 5.09424 44.1801C5.06624 44.1791 5.03924 44.1791 5.01224 44.1781C4.95824 44.1761 4.90525 44.1731 4.85225 44.1731C4.84125 44.1731 4.83225 44.1741 4.82125 44.1741C4.69725 44.1751 4.57624 44.1821 4.45624 44.1941C4.42024 44.1981 4.38425 44.2031 4.34925 44.2071C4.23725 44.2221 4.12725 44.2401 4.01825 44.2641C4.00625 44.2671 3.99525 44.2671 3.98325 44.2701C3.73325 44.3291 3.49425 44.4161 3.26825 44.5281C3.30025 42.3611 3.36724 39.7341 3.44824 36.5611L3.50224 34.4611C3.50624 34.4351 3.51125 34.4091 3.51625 34.3831C3.52325 34.3561 3.52825 34.3281 3.53525 34.3011ZM20.0682 69.6221C16.1092 67.6321 10.6862 64.9051 7.63524 60.1351C7.04424 59.2111 6.52825 58.4461 6.07225 57.7711C4.67125 55.6951 3.93224 54.5991 3.56624 52.5601C3.64824 52.6511 3.73224 52.7431 3.81824 52.8351C5.41624 54.5391 7.50225 56.1131 8.88225 57.1551C9.49725 57.6191 10.0783 58.0571 10.2773 58.2571C10.2823 58.2621 10.2882 58.2681 10.2932 58.2731C10.2932 58.2741 10.2933 58.2741 10.2943 58.2741C10.4043 58.3941 10.5863 58.6101 10.7963 58.8611C12.7213 61.1541 17.8323 67.2481 23.7983 66.5851C24.4163 66.5171 24.8612 65.9601 24.7932 65.3421C24.7252 64.7241 24.1682 64.2801 23.5502 64.3481C18.7882 64.8811 14.2352 59.4551 12.5212 57.4141C12.2902 57.1381 12.1062 56.9191 11.9612 56.7621C11.9512 56.7501 11.9403 56.7401 11.9303 56.7291C11.9243 56.7221 11.9182 56.7151 11.9112 56.7091C11.9102 56.7071 11.9082 56.7041 11.9072 56.7031C11.6002 56.3861 11.0293 55.9551 10.2403 55.3591C8.84225 54.3041 6.92724 52.8591 5.46124 51.2951C5.46024 51.2931 5.45824 51.2921 5.45624 51.2901C4.46624 50.2311 3.85024 49.2941 3.62424 48.4991C3.62424 48.4991 3.62424 48.4981 3.62424 48.4971C3.56324 48.2881 3.53225 48.0941 3.52825 47.9111C3.52325 47.6051 3.59724 47.3301 3.75224 47.0691C4.01824 46.6231 4.30725 46.5091 4.50125 46.4651C4.91925 46.3651 5.91025 46.3881 7.84525 47.6251C7.85325 47.6311 7.86224 47.6361 7.87024 47.6411C7.87124 47.6421 7.87225 47.6431 7.87325 47.6431C10.5132 49.3391 13.1432 52.1641 13.6442 52.7151C15.8742 55.1561 18.2302 55.6871 18.3292 55.7081C18.4072 55.7251 18.4872 55.7321 18.5662 55.7321C20.0342 55.7321 21.4392 55.8361 22.7412 56.0411C34.9052 57.9581 35.1922 68.2351 35.1982 68.6581V82.1091H25.0862C25.9952 74.6181 25.2062 73.3121 24.8962 72.8021C24.2292 71.7141 22.5742 70.8821 20.0682 69.6221ZM24.3682 87.0771C24.4862 86.3681 24.6362 85.4211 24.7882 84.3601H35.1982V87.0811L24.3682 87.0771Z" fill="#696969"/>
<path d="M23.0912 53.8161C21.7172 53.5991 20.2443 53.4871 18.7123 53.4801C18.3303 53.3671 16.8053 52.8351 15.3073 51.1961C14.6043 50.4241 12.2152 47.8891 9.60724 46.0921V34.7701C9.60724 34.6251 9.60024 34.4821 9.58624 34.3421C9.37124 32.2311 7.58325 30.5781 5.41625 30.5781C3.58425 30.5781 1.98925 31.7731 1.43625 33.4581C1.36825 33.6651 1.31924 33.8801 1.28424 34.1011V34.1021C1.27824 34.1381 1.27025 34.1721 1.26525 34.2081C1.26025 34.2461 1.25724 34.2841 1.25624 34.3231C1.25624 34.3241 1.25624 34.3251 1.25624 34.3271L1.20024 36.5221C1.06924 41.6661 0.974243 45.3831 1.00624 48.0541C1.07824 54.3891 1.93025 55.6521 4.20825 59.0291C4.65725 59.6931 5.16524 60.4461 5.74124 61.3461C9.12524 66.6381 15.1033 69.6441 19.0593 71.6331C20.7413 72.4791 22.6462 73.4371 22.9762 73.9731C23.0552 74.1041 23.7192 75.4641 22.6942 83.0831C22.3362 85.7661 21.9302 87.9761 21.9262 87.9971C21.8652 88.3261 21.9542 88.6641 22.1682 88.9221C22.3812 89.1791 22.6993 89.3271 23.0333 89.3271L36.3252 89.3321C36.6242 89.3321 36.9103 89.2141 37.1213 89.0021C37.3322 88.7911 37.4513 88.5051 37.4513 88.2061V68.6461C37.4503 68.5161 37.4023 65.4231 35.6043 62.0471C33.9413 58.9301 30.4212 54.9711 23.0912 53.8161ZM3.53525 34.3011C3.54225 34.2701 3.55125 34.2401 3.55925 34.2101C3.56725 34.1841 3.57425 34.1571 3.58325 34.1311C3.59325 34.1011 3.60425 34.0731 3.61525 34.0441C3.62525 34.0191 3.63425 33.9931 3.64525 33.9691C3.65825 33.9411 3.67224 33.9141 3.68524 33.8861C3.69724 33.8631 3.70824 33.8391 3.72124 33.8151C3.73624 33.7881 3.75225 33.7621 3.76825 33.7361C3.78225 33.7141 3.79425 33.6921 3.80925 33.6711C3.82725 33.6451 3.84624 33.6201 3.86424 33.5961C3.87924 33.5751 3.89424 33.5551 3.90924 33.5351C3.92924 33.5111 3.95024 33.4881 3.97124 33.4651C3.98824 33.4461 4.00424 33.4271 4.02124 33.4091C4.04324 33.3871 4.06625 33.3651 4.08925 33.3441C4.10725 33.3271 4.12425 33.3101 4.14325 33.2941C4.16725 33.2731 4.19325 33.2531 4.21825 33.2341C4.23725 33.2201 4.25524 33.2041 4.27524 33.1901C4.30224 33.1711 4.32924 33.1541 4.35724 33.1361C4.37724 33.1241 4.39625 33.1101 4.41625 33.0981C4.44525 33.0811 4.47524 33.0661 4.50424 33.0511C4.52524 33.0401 4.54525 33.0291 4.56525 33.0191C4.59625 33.0041 4.62825 32.9911 4.66025 32.9781C4.68125 32.9691 4.70225 32.9591 4.72325 32.9521C4.75625 32.9391 4.79025 32.9301 4.82425 32.9191C4.84525 32.9121 4.86624 32.9041 4.88724 32.8981C4.92324 32.8881 4.96125 32.8811 4.99825 32.8731C5.01825 32.8691 5.03724 32.8641 5.05824 32.8601C5.10024 32.8531 5.14224 32.8481 5.18524 32.8431C5.20224 32.8411 5.21824 32.8381 5.23424 32.8371C5.29424 32.8311 5.35424 32.8291 5.41524 32.8291C6.35224 32.8291 7.13524 33.4961 7.31624 34.3791C7.34224 34.5051 7.35524 34.6361 7.35524 34.7701V44.7901C7.33424 44.7811 7.31425 44.7731 7.29325 44.7641C7.26725 44.7531 7.24124 44.7431 7.21524 44.7311C7.12824 44.6931 7.04224 44.6571 6.95624 44.6231C6.92824 44.6121 6.90125 44.6021 6.87325 44.5921C6.79025 44.5601 6.70824 44.5301 6.62724 44.5021C6.59825 44.4921 6.56924 44.4831 6.54024 44.4741C6.46124 44.4481 6.38325 44.4231 6.30625 44.4001C6.27725 44.3911 6.24725 44.3841 6.21825 44.3761C6.14225 44.3551 6.06725 44.3341 5.99225 44.3161C5.96225 44.3091 5.93325 44.3031 5.90425 44.2971C5.83125 44.2811 5.75824 44.2651 5.68524 44.2521C5.65624 44.2471 5.62824 44.2431 5.59925 44.2381C5.52824 44.2261 5.45625 44.2151 5.38625 44.2071C5.35825 44.2031 5.33025 44.2011 5.30225 44.1981C5.23225 44.1911 5.16324 44.1841 5.09424 44.1801C5.06624 44.1791 5.03924 44.1791 5.01224 44.1781C4.95824 44.1761 4.90525 44.1731 4.85225 44.1731C4.84125 44.1731 4.83225 44.1741 4.82125 44.1741C4.69725 44.1751 4.57624 44.1821 4.45624 44.1941C4.42024 44.1981 4.38425 44.2031 4.34925 44.2071C4.23725 44.2221 4.12725 44.2401 4.01825 44.2641C4.00625 44.2671 3.99525 44.2671 3.98325 44.2701C3.73325 44.3291 3.49425 44.4161 3.26825 44.5281C3.30025 42.3611 3.36724 39.7341 3.44824 36.5611L3.50224 34.4611C3.50624 34.4351 3.51125 34.4091 3.51625 34.3831C3.52325 34.3561 3.52825 34.3281 3.53525 34.3011ZM20.0682 69.6221C16.1092 67.6321 10.6862 64.9051 7.63524 60.1351C7.04424 59.2111 6.52825 58.4461 6.07225 57.7711C4.67125 55.6951 3.93224 54.5991 3.56624 52.5601C3.64824 52.6511 3.73224 52.7431 3.81824 52.8351C5.41624 54.5391 7.50225 56.1131 8.88225 57.1551C9.49725 57.6191 10.0783 58.0571 10.2773 58.2571C10.2823 58.2621 10.2882 58.2681 10.2932 58.2731C10.2932 58.2741 10.2933 58.2741 10.2943 58.2741C10.4043 58.3941 10.5863 58.6101 10.7963 58.8611C12.7213 61.1541 17.8323 67.2481 23.7983 66.5851C24.4163 66.5171 24.8612 65.9601 24.7932 65.3421C24.7252 64.7241 24.1682 64.2801 23.5502 64.3481C18.7882 64.8811 14.2352 59.4551 12.5212 57.4141C12.2902 57.1381 12.1062 56.9191 11.9612 56.7621C11.9512 56.7501 11.9403 56.7401 11.9303 56.7291C11.9243 56.7221 11.9182 56.7151 11.9112 56.7091C11.9102 56.7071 11.9082 56.7041 11.9072 56.7031C11.6002 56.3861 11.0293 55.9551 10.2403 55.3591C8.84225 54.3041 6.92724 52.8591 5.46124 51.2951C5.46024 51.2931 5.45824 51.2921 5.45624 51.2901C4.46624 50.2311 3.85024 49.2941 3.62424 48.4991C3.62424 48.4991 3.62424 48.4981 3.62424 48.4971C3.56324 48.2881 3.53225 48.0941 3.52825 47.9111C3.52325 47.6051 3.59724 47.3301 3.75224 47.0691C4.01824 46.6231 4.30725 46.5091 4.50125 46.4651C4.91925 46.3651 5.91025 46.3881 7.84525 47.6251C7.85325 47.6311 7.86224 47.6361 7.87024 47.6411C7.87124 47.6421 7.87225 47.6431 7.87325 47.6431C10.5132 49.3391 13.1432 52.1641 13.6442 52.7151C15.8742 55.1561 18.2302 55.6871 18.3292 55.7081C18.4072 55.7251 18.4872 55.7321 18.5662 55.7321C20.0342 55.7321 21.4392 55.8361 22.7412 56.0411C34.9052 57.9581 35.1922 68.2351 35.1982 68.6581V82.1091H25.0862C25.9952 74.6181 25.2062 73.3121 24.8962 72.8021C24.2292 71.7141 22.5742 70.8821 20.0682 69.6221ZM24.3682 87.0771C24.4862 86.3681 24.6362 85.4211 24.7882 84.3601H35.1982V87.0811L24.3682 87.0771Z" stroke="#696969" mask="url(#path-1-outside-1)"/>
<path d="M81.8172 36.3586L81.8172 36.3587L81.8186 36.4151C82.0374 44.9743 82.1498 49.3741 81.773 52.2665C81.3908 55.2009 80.5017 56.603 78.7706 59.1688L81.8172 36.3586ZM81.8172 36.3586L81.7643 34.3227M81.8172 36.3586L81.7643 34.3227M81.7643 34.3227L81.7642 34.3206L81.5143 34.3271C81.5143 34.3172 81.5128 34.3079 81.5112 34.2985C81.51 34.2909 81.5087 34.2832 81.5083 34.2751C81.5074 34.2659 81.5075 34.2566 81.5075 34.2472C81.5076 34.2341 81.5076 34.221 81.5053 34.2081C81.2323 32.1391 79.4463 30.5781 77.3553 30.5781C75.0433 30.5781 73.1633 32.4591 73.1633 34.7701L81.7643 34.3227ZM78.7342 53.4148C77.2081 54.9592 75.3956 56.328 74.0617 57.3355L74.0469 57.3466L74.0468 57.3467C73.7373 57.5801 73.4249 57.8157 73.1692 58.0153C72.9062 58.2207 72.7237 58.3724 72.6581 58.4436L72.6579 58.4438C72.5698 58.5391 72.4322 58.7024 72.2636 58.9024C72.2314 58.9406 72.1981 58.9802 72.1638 59.0209C72.1636 59.021 72.1635 59.0212 72.1633 59.0214L71.9723 58.8601L78.7342 53.4148ZM78.7342 53.4148C78.3222 54.9106 77.6287 55.9407 76.49 57.6293L76.4899 57.6295C76.4533 57.6838 76.4164 57.7387 76.379 57.7942C75.9512 58.4294 75.4679 59.147 74.9236 59.9996C71.9155 64.7022 66.5601 67.4012 62.5899 69.3978L62.7023 69.6211L62.5899 69.3978L62.5716 69.407C61.3308 70.0311 60.2854 70.5569 59.467 71.0637C58.6467 71.5717 58.0244 72.0781 57.6581 72.6755L57.6575 72.6765C57.4108 73.0834 57.2533 73.6519 57.1557 74.3116C57.0574 74.9761 57.017 75.7557 57.0185 76.6003C57.0214 78.206 57.176 80.0669 57.3849 81.8581H47.8213V68.6706C47.8248 68.5241 47.9144 65.4489 49.8742 62.3693C52.5599 58.1496 57.3555 55.9801 64.2053 55.9801C64.304 55.9801 64.4001 55.969 64.4921 55.9499L64.4927 55.9498C64.6236 55.9223 67.0327 55.3744 69.3098 52.8817L69.3099 52.8817C71.0308 50.9967 73.153 49.0685 75.0057 47.8679C75.0085 47.8662 75.0117 47.8642 75.0152 47.862C75.0345 47.85 75.0642 47.8316 75.0923 47.811C76.2237 47.0888 77.2051 46.6741 77.9103 46.6741C77.964 46.6741 78.0185 46.6775 78.0738 46.6829C78.2413 46.7 78.3697 46.7458 78.4789 46.8209C78.5902 46.8974 78.6963 47.0143 78.8032 47.1946L78.8035 47.195C79.0902 47.6765 79.0415 48.2779 78.7 48.9909C78.3592 49.7026 77.7483 50.4755 77.0055 51.2463C75.5222 52.7856 73.5702 54.2596 72.3897 55.1505L78.7342 53.4148ZM78.7045 59.2669L78.7705 59.169L81.7575 34.2551L81.7572 34.2525C81.7576 34.2562 81.7575 34.2579 81.7575 34.2557L81.7575 34.2555L81.7575 34.2554L81.7575 34.2554L81.7575 34.2417V34.2414C81.7575 34.2295 81.7575 34.2026 81.7526 34.1712C81.4612 31.9794 79.5697 30.3281 77.3553 30.3281C74.9052 30.3281 72.9133 32.3211 72.9133 34.7701V45.9658C70.4426 47.6793 68.2014 50.0138 67.2786 51.0257C65.8672 52.5712 64.4252 53.1032 64.0206 53.2283C54.4398 53.281 49.7755 57.4008 47.5534 60.8919L47.5534 60.8919C45.1358 64.6914 45.0724 68.4685 45.0713 68.6556H45.0713V68.6571V88.2061C45.0713 88.5711 45.2154 88.9208 45.4735 89.1789L45.4739 89.1793C45.7323 89.4365 46.0815 89.5821 46.4463 89.5821H46.4463H46.4464H46.4464H46.4464H46.4464H46.4465H46.4465H46.4465H46.4466H46.4466H46.4466H46.4467H46.4467H46.4467H46.4468H46.4468H46.4468H46.4468H46.4469H46.4469H46.4469H46.447H46.447H46.447H46.4471H46.4471H46.4471H46.4471H46.4472H46.4472H46.4472L46.4473 89.5477L46.4473 89.3321L46.4474 89.5821L59.7393 89.5771C59.7393 89.5771 59.7394 89.5771 59.7394 89.5771C60.1473 89.5771 60.5348 89.3963 60.7964 89.0821C61.0581 88.7678 61.1655 88.3536 61.0922 87.9531L61.0922 87.9529C60.8055 86.395 60.5455 84.7494 60.3323 83.1551C60.3278 83.083 60.3192 83.0069 60.3027 82.9314C60.023 80.8043 59.8293 78.7817 59.7696 77.1869C59.7397 76.3876 59.7436 75.701 59.786 75.165C59.8073 74.8969 59.8378 74.6709 59.8771 74.4896C59.9171 74.3053 59.963 74.1825 60.0068 74.1101C60.0612 74.0218 60.2044 73.8854 60.4544 73.7073C60.696 73.5352 61.0095 73.3429 61.3705 73.1381C62.0923 72.7285 62.9835 72.2803 63.8265 71.8565L63.8266 71.8565L63.8475 71.846C67.7932 69.8617 73.8212 66.8301 77.2409 61.4828L77.2409 61.4828C77.787 60.6286 78.2727 59.9078 78.7045 59.2669ZM58.9425 66.8316L58.9427 66.8316L57.9773 65.3391L57.7288 65.311C57.7288 65.3111 57.7288 65.3111 57.7288 65.3111C57.6433 66.0677 58.1875 66.7473 58.9425 66.8316ZM72.4743 58.2741C72.6393 58.0951 73.2783 57.6131 73.8963 57.1471L72.4743 58.2741ZM57.7502 84.6101C57.8694 85.4194 57.9901 86.1716 58.1003 86.8262L47.8213 86.83V84.6101H57.7502ZM78.3506 43.9454C77.4991 43.8583 76.5831 44.0599 75.6653 44.4299V34.7701C75.6653 33.838 76.4235 33.0791 77.3553 33.0791C78.1955 33.0791 78.8826 33.6656 79.0158 34.4811L79.0664 36.4285L79.0664 36.4286L79.0705 36.5905C79.1477 39.6167 79.2109 42.0932 79.2443 44.1465C78.9617 44.0444 78.6631 43.9772 78.3506 43.9454Z" fill="#696969" stroke="#696969" stroke-width="0.5"/>
<path d="M40.6254 48.9629C40.8561 49.1175 41.1218 49.193 41.3872 49.193C41.6526 49.193 41.9177 49.1159 42.1481 48.9635L42.1483 48.9634C42.7074 48.593 49.5015 44.0394 56.1585 37.6339C59.487 34.4312 62.7878 30.7594 65.2581 26.91C67.7266 23.0634 69.3792 19.0185 69.3792 15.075C69.3792 10.7188 67.8529 7.01891 64.9498 4.39551C62.3448 2.04129 58.8174 0.75 55.0232 0.75C49.5908 0.75 44.5459 3.3932 41.3871 7.77252C38.2264 3.39417 33.1805 0.75 27.7472 0.75C23.952 0.75 20.4246 2.04026 17.8195 4.39555C14.9155 7.01893 13.3882 10.7188 13.3882 15.075C13.3882 19.0183 15.0413 23.0631 17.5106 26.9097C19.9815 30.7589 23.2834 34.4308 26.6127 37.6335C33.269 44.0366 40.062 48.5893 40.6254 48.9629ZM40.6254 48.9629C40.6252 48.9628 40.6251 48.9627 40.625 48.9627L40.7642 48.755L40.626 48.9633C40.6258 48.9632 40.6256 48.9631 40.6254 48.9629ZM42.6002 11.0147L42.6004 11.0143C45.0888 6.37978 49.8501 3.50301 55.0252 3.50301C57.8289 3.50301 60.7318 4.41205 62.9298 6.3077C65.122 8.19835 66.6292 11.0837 66.6292 15.076C66.6289 18.272 65.3093 21.6448 63.2413 24.9634C61.1751 28.2792 58.3748 31.52 55.4439 34.4468C49.7165 40.1663 43.5146 44.663 41.3882 46.1492C39.2612 44.663 33.0576 40.1663 27.3287 34.4468C24.3971 31.52 21.5961 28.2792 19.5294 24.9634C17.461 21.6448 16.1412 18.272 16.1412 15.076C16.1412 11.0837 17.6486 8.19837 19.8413 6.30772C22.0398 4.41207 24.9435 3.50301 27.7482 3.50301C32.9243 3.50301 37.6866 6.3798 40.1759 11.0143C40.4157 11.4618 40.8816 11.739 41.3882 11.739C41.8956 11.739 42.3598 11.4601 42.6002 11.0147Z" fill="#696969" stroke="#696969" stroke-width="0.5"/>
</svg>
