<svg width="96" height="63" viewBox="0 0 96 63" fill="none" xmlns="http://www.w3.org/2000/svg">
<path d="M3 3H59.6667V53H29.6667" stroke="#696969" stroke-width="5" stroke-miterlimit="10" stroke-linecap="round" stroke-linejoin="round"/>
<path d="M76.3332 59.6666C80.0151 59.6666 82.9998 56.6818 82.9998 52.9999C82.9998 49.318 80.0151 46.3333 76.3332 46.3333C72.6513 46.3333 69.6665 49.318 69.6665 52.9999C69.6665 56.6818 72.6513 59.6666 76.3332 59.6666Z" stroke="#696969" stroke-width="5" stroke-miterlimit="10" stroke-linecap="round" stroke-linejoin="round"/>
<path d="M23.0002 59.6666C26.6821 59.6666 29.6668 56.6818 29.6668 52.9999C29.6668 49.318 26.6821 46.3333 23.0002 46.3333C19.3183 46.3333 16.3335 49.318 16.3335 52.9999C16.3335 56.6818 19.3183 59.6666 23.0002 59.6666Z" stroke="#696969" stroke-width="5" stroke-miterlimit="10" stroke-linecap="round" stroke-linejoin="round"/>
<path d="M59.6665 52.9999V16.3333H79.6665L92.9998 32.9999V52.9999H82.9998" stroke="#696969" stroke-width="5" stroke-miterlimit="10" stroke-linecap="round" stroke-linejoin="round"/>
<path d="M9.6665 16.3333H39.6665" stroke="#696969" stroke-width="5" stroke-miterlimit="10" stroke-linecap="round" stroke-linejoin="round"/>
<path d="M3 29.6667H33" stroke="#696969" stroke-width="5" stroke-miterlimit="10" stroke-linecap="round" stroke-linejoin="round"/>
</svg>
